<?xml version="1.0" standalone="no"?>
<!DOCTYPE svg PUBLIC "-//W3C//DTD SVG 20010904//EN"
 "http://www.w3.org/TR/2001/REC-SVG-20010904/DTD/svg10.dtd">
<svg version="1.0" xmlns="http://www.w3.org/2000/svg"
 width="300.000000pt" height="300.000000pt" viewBox="0 0 300.000000 300.000000"
 preserveAspectRatio="xMidYMid meet">
<metadata>
Created by potrace 1.14, written by Peter Selinger 2001-2017
</metadata>
<g transform="translate(0.000000,300.000000) scale(0.100000,-0.100000)"
fill="#000000" stroke="none">
<path d="M155 2282 c-72 -3 -101 -16 -113 -51 -11 -31 -10 -416 0 -427 5 -4 8
-2 8 3 0 22 73 85 126 110 79 36 133 28 276 -40 113 -54 144 -68 163 -72 61
-16 63 -12 7 16 -34 17 -61 33 -59 35 18 19 188 103 219 109 129 26 245 -38
303 -167 23 -49 29 -80 31 -144 3 -70 -2 -94 -36 -196 -21 -63 -68 -177 -104
-252 -37 -75 -83 -178 -102 -229 -20 -51 -54 -127 -76 -171 -22 -43 -34 -76
-26 -74 7 3 39 13 71 22 213 62 425 256 510 468 25 63 31 86 46 186 42 278
-105 575 -367 739 -111 69 -204 103 -342 124 -63 9 -415 17 -535 11z"/>
<path d="M1709 2147 c-31 -12 -71 -69 -74 -105 -5 -66 58 -132 125 -132 39 0
90 26 90 45 0 19 -9 19 -32 -2 -11 -9 -35 -16 -60 -16 -86 0 -127 99 -68 163
32 34 73 39 121 15 40 -21 59 -8 22 16 -35 22 -89 29 -124 16z"/>
<path d="M2919 2160 c0 -3 -1 -59 -2 -124 -1 -86 2 -121 11 -124 12 -4 13 5
14 166 0 35 -4 68 -11 75 -6 6 -11 9 -12 7z"/>
<path d="M1913 2080 c-79 -48 -46 -170 46 -170 81 0 122 93 69 155 -29 33 -76
39 -115 15z m97 -30 c27 -27 25 -66 -5 -95 -32 -28 -72 -26 -97 5 -24 30 -23
59 4 87 27 29 71 30 98 3z"/>
<path d="M2090 2090 c-12 -8 -12 -10 1 -15 9 -3 20 -5 25 -4 5 1 31 1 57 0
l48 -1 -65 -67 c-36 -38 -66 -74 -66 -80 0 -10 24 -13 86 -13 64 0 85 3 82 12
-3 8 -25 13 -61 12 -31 0 -57 3 -57 7 0 4 26 35 58 69 31 34 57 67 57 73 0 14
-144 20 -165 7z"/>
<path d="M2287 2093 c-4 -3 -7 -36 -7 -73 0 -88 12 -103 84 -106 l56 -2 0 95
c0 71 -3 94 -12 91 -9 -3 -13 -27 -14 -70 -1 -73 -5 -83 -33 -91 -39 -10 -55
15 -56 86 -1 65 -5 83 -18 70z"/>
<path d="M2447 2085 c-3 -8 -1 -115 2 -162 1 -7 6 -13 11 -13 6 0 10 28 10 64
0 77 6 96 30 96 45 0 50 -9 50 -86 0 -43 4 -74 10 -74 12 0 11 -3 14 77 2 72
18 96 54 82 23 -9 25 -20 22 -113 -1 -36 2 -47 12 -44 16 6 20 122 5 155 -12
26 -47 36 -82 23 -17 -6 -33 -7 -44 -1 -22 12 -90 9 -94 -4z"/>
<path d="M2765 2093 c-76 -18 -93 -125 -28 -168 42 -28 137 -5 116 28 -2 4
-15 1 -28 -7 -13 -8 -33 -13 -45 -11 -24 5 -60 33 -60 47 0 4 36 8 79 8 53 0
81 4 83 12 7 21 -22 68 -52 83 -30 16 -32 16 -65 8z m77 -45 c15 -24 2 -32
-51 -33 -68 -1 -79 7 -51 35 18 18 30 21 58 16 19 -3 39 -11 44 -18z"/>
<path d="M2350 1760 c-9 -5 -14 -28 -14 -62 -1 -51 -2 -53 -28 -53 -15 0 -32
-5 -39 -12 -19 -19 8 -45 41 -39 l27 4 1 -166 c1 -91 4 -167 6 -169 3 -3 14
-2 26 2 20 6 21 13 20 123 -2 222 -4 207 31 208 61 3 63 44 2 50 -15 1 -30 2
-33 3 -3 1 -3 23 -2 49 4 52 -12 78 -38 62z"/>
<path d="M2901 1757 c-7 -7 -11 -87 -11 -249 0 -207 2 -239 16 -245 8 -3 20
-1 25 4 8 8 13 237 10 449 -1 43 -19 62 -40 41z"/>
<path d="M1675 1639 c-16 -3 -42 -11 -56 -17 -30 -12 -99 -88 -100 -111 0 -9
-3 -29 -5 -46 -14 -85 63 -187 151 -201 65 -9 120 4 156 37 26 24 29 32 19 44
-16 19 -25 19 -44 0 -35 -36 -107 -45 -156 -20 -34 18 -70 61 -70 86 0 16 11
17 123 17 221 0 215 -3 195 69 -25 95 -126 162 -213 142z m110 -75 c24 -16 55
-62 55 -81 0 -8 -267 -10 -275 -2 -8 9 34 68 60 85 54 35 104 35 160 -2z"/>
<path d="M1972 1638 c-14 -14 -17 -345 -3 -367 5 -8 16 -11 25 -8 17 7 18 14
16 162 0 103 10 133 59 157 26 13 39 14 62 6 53 -18 64 -48 65 -184 1 -125 5
-144 30 -144 18 0 17 -8 19 145 2 114 0 134 -18 167 -33 61 -116 90 -176 61
-27 -14 -32 -13 -46 1 -20 19 -18 19 -33 4z"/>
<path d="M2611 1638 c-64 -11 -114 -48 -136 -101 -44 -106 -10 -210 85 -256
53 -26 106 -26 162 0 26 12 48 26 48 31 0 21 19 5 22 -19 2 -20 9 -28 23 -28
19 0 20 7 22 105 3 128 -12 175 -68 224 -48 41 -98 55 -158 44z m106 -68 c66
-40 87 -114 51 -183 -37 -73 -126 -99 -196 -55 -37 23 -71 84 -67 121 1 12 3
30 4 40 0 9 20 35 42 57 36 35 47 40 88 40 28 0 58 -8 78 -20z"/>
<path d="M35 1094 c1 -181 5 -336 9 -345 14 -31 55 -39 191 -39 74 0 135 3
135 6 0 4 -22 50 -48 103 -27 53 -61 128 -76 166 -15 39 -48 108 -74 155 -43
79 -86 168 -123 249 -14 32 -16 10 -14 -295z"/>
<path d="M562 1217 c-68 -38 -100 -147 -100 -340 0 -73 -2 -139 -4 -147 -2
-12 12 -15 82 -15 69 0 84 3 82 14 -2 8 -4 92 -6 185 -2 150 -5 177 -24 219
l-22 48 22 8 c12 4 31 6 41 3 24 -6 62 -58 77 -107 19 -62 30 -64 16 -4 -29
126 -90 176 -164 136z"/>
<path d="M1799 1078 c-1 -170 0 -208 6 -218 15 -24 24 -6 27 52 l3 62 70 1 70
0 5 -59 c3 -35 10 -61 18 -64 9 -3 12 31 12 147 0 128 -2 151 -15 151 -12 0
-15 -14 -15 -70 0 -38 -3 -70 -7 -71 -5 -1 -38 -2 -76 -3 l-67 -1 0 73 c0 57
-3 72 -15 72 -12 0 -15 -15 -16 -72z"/>
<path d="M2582 1006 c-1 -130 6 -171 24 -153 3 3 6 69 7 148 2 126 0 144 -15
147 -14 3 -16 -13 -16 -142z"/>
<path d="M2680 1125 c0 -14 0 -28 1 -32 0 -5 -9 -10 -21 -13 -29 -7 -30 -24
-2 -28 22 -3 22 -7 21 -98 -1 -53 1 -98 4 -101 18 -17 27 18 27 102 0 87 2 94
20 97 12 2 21 8 21 13 0 6 -9 11 -21 13 -16 3 -20 11 -20 38 0 24 -5 34 -15
34 -9 0 -15 -9 -15 -25z"/>
<path d="M2770 999 c0 -137 2 -150 17 -147 15 3 17 14 15 77 -3 107 28 146 86
105 20 -14 22 -24 22 -100 0 -68 3 -84 15 -84 12 0 15 14 16 63 2 110 -4 133
-41 152 -35 18 -72 19 -89 3 -10 -11 -12 -6 -11 22 3 53 1 60 -15 60 -13 0
-15 -23 -15 -151z"/>
<path d="M2103 1058 c-114 -80 -19 -248 112 -198 25 9 43 35 32 46 -3 3 -16
-1 -29 -10 -43 -28 -128 -3 -128 39 0 12 17 15 94 15 106 0 116 7 87 61 -19
37 -71 69 -111 69 -14 0 -40 -10 -57 -22z m100 -19 c23 -10 52 -47 44 -55 -3
-3 -42 -4 -87 -2 l-83 3 31 33 c32 34 55 39 95 21z"/>
<path d="M2370 1058 c-114 -77 -12 -255 111 -194 39 20 39 20 39 1 0 -8 7 -15
15 -15 12 0 15 14 15 64 0 108 -28 152 -102 162 -35 5 -50 1 -78 -18z m97 -14
c28 -8 57 -68 48 -101 -10 -41 -34 -58 -81 -58 -82 0 -115 87 -53 139 31 27
47 30 86 20z"/>
</g>
</svg>
