<svg xmlns="http://www.w3.org/2000/svg" xmlns:xlink="http://www.w3.org/1999/xlink" width="1280" zoomAndPan="magnify" viewBox="0 0 960 599.999999" height="800" preserveAspectRatio="xMidYMid meet" version="1.0"><defs><clipPath id="7266410fc9"><path d="M 146.703125 3.910156 L 813.503906 3.910156 L 813.503906 596.394531 L 146.703125 596.394531 Z M 146.703125 3.910156 " clip-rule="nonzero"/></clipPath></defs><g clip-path="url(#7266410fc9)"><path fill="#b6ccd7" d="M 677.367188 48.023438 C 695.046875 37.9375 710.871094 28.878906 726.730469 19.875 C 735.054688 15.152344 743.574219 10.757812 751.738281 5.773438 C 757.125 2.484375 760.453125 3.644531 764.296875 8.433594 C 780.363281 28.472656 791.894531 51.023438 801.121094 74.746094 C 813.457031 106.472656 816.035156 139.375 811.253906 172.964844 C 807.652344 198.234375 800.890625 222.679688 791.6875 246.425781 C 774.265625 291.371094 743.976562 324.789062 701.300781 347.269531 C 648.015625 375.332031 591.5 390.128906 531.179688 389.714844 C 509.546875 389.566406 487.945312 388.371094 466.421875 386.046875 C 450.269531 384.300781 434.0625 384.003906 417.835938 383.867188 C 379.820312 383.542969 344.28125 394.035156 311.730469 412.375 C 287.835938 425.839844 267.398438 444.773438 250.992188 467.167969 C 241.691406 479.867188 237.109375 494.710938 237.09375 510.503906 C 237.085938 528.785156 235.757812 547.125 238.375 565.335938 C 239.050781 570.003906 238.320312 572.980469 233.136719 574.667969 C 213.761719 580.984375 194.371094 587.304688 175.703125 595.589844 C 169.328125 598.421875 167.542969 593.210938 165.675781 589.347656 C 155.472656 568.21875 147.796875 546.28125 146.867188 522.566406 C 145 475.113281 159.117188 433.367188 190.867188 397.546875 C 233.234375 349.753906 284.894531 317.363281 346.957031 302.066406 C 389.09375 291.683594 431.851562 292.109375 474.707031 296.144531 C 506.636719 299.144531 538.628906 301.75 570.523438 296.765625 C 607.046875 291.054688 641.542969 279.511719 672.777344 259.039062 C 689.597656 248.007812 699.734375 232.09375 707.066406 214.136719 C 715.117188 194.417969 720.746094 173.957031 722.699219 152.640625 C 724.445312 133.5625 721.125 115.46875 712.957031 98.039062 C 704.414062 79.800781 694.476562 62.648438 677.367188 48.023438 " fill-opacity="1" fill-rule="nonzero"/></g></svg>